<mxfile host="app.diagrams.net" agent="Mozilla/5.0 (Windows NT 10.0; Win64; x64) AppleWebKit/537.36 (KHTML, like Gecko) Chrome/128.0.0.0 Safari/537.36 Edg/128.0.0.0" version="24.7.15">
  <diagram name="Page-1" id="abaU5teWBHSIh3knwFKt">
    <mxGraphModel dx="2109" dy="1744" grid="1" gridSize="10" guides="1" tooltips="1" connect="1" arrows="1" fold="1" page="1" pageScale="1" pageWidth="827" pageHeight="1169" math="0" shadow="0">
      <root>
        <mxCell id="0" />
        <mxCell id="1" parent="0" />
        <mxCell id="ytxkbaWUz_GBkNSJb9Mm-1" value="" style="whiteSpace=wrap;html=1;aspect=fixed;horizontal=1;movable=1;resizable=1;rotatable=1;deletable=1;editable=1;locked=0;connectable=1;" parent="1" vertex="1">
          <mxGeometry x="71" y="-260" width="960" height="960" as="geometry" />
        </mxCell>
        <mxCell id="ytxkbaWUz_GBkNSJb9Mm-2" value="Prix Goncourt 2024" style="rounded=0;whiteSpace=wrap;html=1;" parent="1" vertex="1">
          <mxGeometry x="90" y="-215" width="190" height="40" as="geometry" />
        </mxCell>
        <mxCell id="ytxkbaWUz_GBkNSJb9Mm-3" value="Users" style="shape=umlActor;verticalLabelPosition=bottom;verticalAlign=top;html=1;outlineConnect=0;fillColor=#f8cecc;strokeColor=#b85450;" parent="1" vertex="1">
          <mxGeometry x="10" y="20" width="30" height="60" as="geometry" />
        </mxCell>
        <mxCell id="ytxkbaWUz_GBkNSJb9Mm-4" value="jury Chairman" style="shape=umlActor;verticalLabelPosition=bottom;verticalAlign=top;html=1;outlineConnect=0;fillColor=#dae8fc;strokeColor=#6c8ebf;align=center;" parent="1" vertex="1">
          <mxGeometry x="10" y="270" width="30" height="60" as="geometry" />
        </mxCell>
        <mxCell id="ytxkbaWUz_GBkNSJb9Mm-5" value="Jury members" style="shape=umlActor;verticalLabelPosition=bottom;verticalAlign=top;html=1;outlineConnect=0;fillColor=#d5e8d4;strokeColor=#82b366;" parent="1" vertex="1">
          <mxGeometry x="10" y="490" width="30" height="60" as="geometry" />
        </mxCell>
        <mxCell id="ytxkbaWUz_GBkNSJb9Mm-7" value="Display books" style="ellipse;whiteSpace=wrap;html=1;fillColor=#f5f5f5;strokeColor=#666666;fontColor=#333333;" parent="1" vertex="1">
          <mxGeometry x="430" y="-130" width="120" height="80" as="geometry" />
        </mxCell>
        <mxCell id="ytxkbaWUz_GBkNSJb9Mm-12" value="Login&lt;div&gt;User&lt;/div&gt;" style="ellipse;whiteSpace=wrap;html=1;fillColor=#d5e8d4;strokeColor=#82b366;" parent="1" vertex="1">
          <mxGeometry x="400" y="490" width="120" height="80" as="geometry" />
        </mxCell>
        <mxCell id="ytxkbaWUz_GBkNSJb9Mm-16" value="" style="endArrow=none;html=1;rounded=0;fillColor=#f8cecc;strokeColor=#b85450;" parent="1" target="ytxkbaWUz_GBkNSJb9Mm-7" edge="1">
          <mxGeometry width="50" height="50" relative="1" as="geometry">
            <mxPoint x="60" y="60" as="sourcePoint" />
            <mxPoint x="430" y="280" as="targetPoint" />
          </mxGeometry>
        </mxCell>
        <mxCell id="ytxkbaWUz_GBkNSJb9Mm-18" value="" style="endArrow=none;html=1;rounded=0;fillColor=#d5e8d4;strokeColor=#82b366;" parent="1" source="ytxkbaWUz_GBkNSJb9Mm-12" edge="1">
          <mxGeometry width="50" height="50" relative="1" as="geometry">
            <mxPoint x="380" y="410" as="sourcePoint" />
            <mxPoint x="60" y="530" as="targetPoint" />
          </mxGeometry>
        </mxCell>
        <mxCell id="ytxkbaWUz_GBkNSJb9Mm-22" value="Vote for the books of the 2nd and 3rd selections" style="ellipse;whiteSpace=wrap;html=1;fillColor=#d5e8d4;strokeColor=#82b366;" parent="1" vertex="1">
          <mxGeometry x="610" y="370" width="136" height="100" as="geometry" />
        </mxCell>
        <mxCell id="ytxkbaWUz_GBkNSJb9Mm-24" value="" style="endArrow=none;html=1;rounded=0;entryX=0;entryY=1;entryDx=0;entryDy=0;fillColor=#d5e8d4;strokeColor=#82b366;" parent="1" source="ytxkbaWUz_GBkNSJb9Mm-12" target="ytxkbaWUz_GBkNSJb9Mm-22" edge="1">
          <mxGeometry width="50" height="50" relative="1" as="geometry">
            <mxPoint x="60" y="530" as="sourcePoint" />
            <mxPoint x="430" y="400" as="targetPoint" />
          </mxGeometry>
        </mxCell>
        <mxCell id="tsSxHWKioVlDDUs3cD3j-12" value="Select books for the 2nd selection" style="ellipse;whiteSpace=wrap;html=1;fillColor=#dae8fc;strokeColor=#6c8ebf;" parent="1" vertex="1">
          <mxGeometry x="482" y="40" width="138" height="80" as="geometry" />
        </mxCell>
        <mxCell id="tsSxHWKioVlDDUs3cD3j-16" value="" style="endArrow=none;html=1;rounded=0;fillColor=#dae8fc;strokeColor=#6c8ebf;" parent="1" target="tsSxHWKioVlDDUs3cD3j-12" edge="1">
          <mxGeometry width="50" height="50" relative="1" as="geometry">
            <mxPoint x="60" y="320" as="sourcePoint" />
            <mxPoint x="400" y="180" as="targetPoint" />
          </mxGeometry>
        </mxCell>
        <mxCell id="Ld1TQwFkPDW0DGkK1mxV-3" value="" style="endArrow=none;html=1;rounded=0;fillColor=#dae8fc;strokeColor=#6c8ebf;" parent="1" target="Ld1TQwFkPDW0DGkK1mxV-4" edge="1" source="CNkRr0fHuNL57hCWTa8j-1">
          <mxGeometry width="50" height="50" relative="1" as="geometry">
            <mxPoint x="60" y="320" as="sourcePoint" />
            <mxPoint x="512" y="120" as="targetPoint" />
          </mxGeometry>
        </mxCell>
        <mxCell id="Ld1TQwFkPDW0DGkK1mxV-4" value="Select books for the 3rd selection" style="ellipse;whiteSpace=wrap;html=1;fillColor=#dae8fc;strokeColor=#6c8ebf;" parent="1" vertex="1">
          <mxGeometry x="520" y="130" width="140" height="80" as="geometry" />
        </mxCell>
        <mxCell id="Ld1TQwFkPDW0DGkK1mxV-5" value="Dispay and Indicate the number of votes obtained for each book in the last ballot&amp;nbsp;" style="ellipse;whiteSpace=wrap;html=1;fillColor=#dae8fc;strokeColor=#6c8ebf;" parent="1" vertex="1">
          <mxGeometry x="545" y="230" width="215" height="100" as="geometry" />
        </mxCell>
        <mxCell id="Ld1TQwFkPDW0DGkK1mxV-6" value="" style="endArrow=none;html=1;rounded=0;fillColor=#dae8fc;strokeColor=#6c8ebf;" parent="1" target="Ld1TQwFkPDW0DGkK1mxV-5" edge="1">
          <mxGeometry width="50" height="50" relative="1" as="geometry">
            <mxPoint x="60" y="320" as="sourcePoint" />
            <mxPoint x="521" y="243" as="targetPoint" />
          </mxGeometry>
        </mxCell>
        <mxCell id="Ld1TQwFkPDW0DGkK1mxV-9" value="- Title&lt;br&gt;- Summary&lt;div&gt;- Author&lt;/div&gt;&lt;div&gt;- Publisher&lt;/div&gt;&lt;div&gt;- Main characters&lt;/div&gt;&lt;div&gt;- Publication date&lt;/div&gt;&lt;div&gt;- Number of pages&lt;/div&gt;&lt;div&gt;- ISBN&lt;/div&gt;&lt;div&gt;- Publisher&#39;s price&lt;/div&gt;&lt;div&gt;- Author biography&lt;/div&gt;" style="shape=note;whiteSpace=wrap;html=1;backgroundOutline=1;darkOpacity=0.05;fillColor=#e1d5e7;strokeColor=#9673a6;" parent="1" vertex="1">
          <mxGeometry x="610" y="-215" width="170" height="155" as="geometry" />
        </mxCell>
        <mxCell id="Ld1TQwFkPDW0DGkK1mxV-10" value="" style="endArrow=none;dashed=1;html=1;rounded=0;entryX=0.928;entryY=0.193;entryDx=0;entryDy=0;entryPerimeter=0;" parent="1" target="ytxkbaWUz_GBkNSJb9Mm-7" edge="1">
          <mxGeometry width="50" height="50" relative="1" as="geometry">
            <mxPoint x="611.5" y="-130" as="sourcePoint" />
            <mxPoint x="472.5" y="-107" as="targetPoint" />
            <Array as="points" />
          </mxGeometry>
        </mxCell>
        <mxCell id="txxAauQwy4MkWNmEKKOq-1" value="first, seconde and third selection" style="shape=note;whiteSpace=wrap;html=1;backgroundOutline=1;darkOpacity=0.05;fillColor=#e1d5e7;strokeColor=#9673a6;align=left;" parent="1" vertex="1">
          <mxGeometry x="360" y="-190" width="210" height="30" as="geometry" />
        </mxCell>
        <mxCell id="txxAauQwy4MkWNmEKKOq-2" value="" style="endArrow=none;dashed=1;html=1;rounded=0;" parent="1" edge="1">
          <mxGeometry width="50" height="50" relative="1" as="geometry">
            <mxPoint x="441" y="-110" as="sourcePoint" />
            <mxPoint x="400" y="-160" as="targetPoint" />
          </mxGeometry>
        </mxCell>
        <mxCell id="CNkRr0fHuNL57hCWTa8j-2" value="" style="endArrow=none;html=1;rounded=0;fillColor=#dae8fc;strokeColor=#6c8ebf;" edge="1" parent="1" target="CNkRr0fHuNL57hCWTa8j-1">
          <mxGeometry width="50" height="50" relative="1" as="geometry">
            <mxPoint x="60" y="320" as="sourcePoint" />
            <mxPoint x="527" y="188" as="targetPoint" />
          </mxGeometry>
        </mxCell>
        <mxCell id="CNkRr0fHuNL57hCWTa8j-1" value="Login&lt;div&gt;User&lt;/div&gt;" style="ellipse;whiteSpace=wrap;html=1;fillColor=#d5e8d4;strokeColor=#82b366;" vertex="1" parent="1">
          <mxGeometry x="125" y="250" width="120" height="80" as="geometry" />
        </mxCell>
        <mxCell id="CNkRr0fHuNL57hCWTa8j-3" value="" style="endArrow=none;html=1;rounded=0;fillColor=#dae8fc;strokeColor=#6c8ebf;entryX=0;entryY=1;entryDx=0;entryDy=0;exitX=0.403;exitY=0.057;exitDx=0;exitDy=0;exitPerimeter=0;" edge="1" parent="1" source="CNkRr0fHuNL57hCWTa8j-1" target="ytxkbaWUz_GBkNSJb9Mm-7">
          <mxGeometry width="50" height="50" relative="1" as="geometry">
            <mxPoint x="60" y="320" as="sourcePoint" />
            <mxPoint x="508" y="116" as="targetPoint" />
          </mxGeometry>
        </mxCell>
      </root>
    </mxGraphModel>
  </diagram>
</mxfile>
